# xmcd
#
# Track frame offsets:
#	150
#	12092
#	26595
#	40957
#	55969
#	69441
#	82773
#	95899
#	108792
#	121605
#	134373
#	148736
#	163144
#	176984
#	189882
#
# Disc length: 2704
#
# Revision: 6
# Processed by: cddbd v1.5.1PL0 Copyright (c) Steve Scherf et al.
# Submitted via: VisiTrax 2.9.5.181 - For more info visit www.synapsa.com
# Normalized: r5:DSETVAR1
#
DISCID=c50a8e0f
DTITLE=Various Artist - Blues Legends 0075
DYEAR=1997
DGENRE=Blues
TTITLE0=Robert Johnson - Phonograph Blues
TTITLE1=Blind Willie McTell - Broke Down Engine
TTITLE2=Sonny Boy Williamson - Blue Bird Blues
TTITLE3=Blind Boy Fuller - Baby You Gotta Change Your Mind
TTITLE4=Leadbelly - Good Morning Blues
TTITLE5=Robert Johnson - Preaching Blues
TTITLE6=Arthur 'Big Boy' Crudup - Gonna Follow My Baby
TTITLE7=Lonnie Johnson - Mr Johnson's Swing
TTITLE8=Brownie McGhee - Picking My Tomatoes
TTITLE9=Roosevelt Sykes - 15c A Day
TTITLE10=Blind Boy Fuller - I'm A Rattlesnakin' Daddy
TTITLE11=Big Bill Broonzy - Worrying You Off My Mind
TTITLE12=Leroy Carr - Good Woman Blues
TTITLE13=Big Bill Broonzy - You Know I Got A Reason
TTITLE14=Robert Johnson - When You Got A Friend
EXTD=
EXTT0=
EXTT1=
EXTT2=
EXTT3=
EXTT4=
EXTT5=
EXTT6=
EXTT7=
EXTT8=
EXTT9=
EXTT10=
EXTT11=
EXTT12=
EXTT13=
EXTT14=
PLAYORDER=
